HIERARCHY
ROOT joint_Root
{
	OFFSET 0.0 0.0 0.0
	CHANNELS 6 Xposition Yposition Zposition Zrotation Xrotation Yrotation 
	JOINT Hips
	{
		OFFSET 4.5925 91.4895 -427.239
		CHANNELS 6 Xposition Yposition Zposition Zrotation Xrotation Yrotation 
		JOINT Spine
		{
			OFFSET 15.7357 0.0 0.0
			CHANNELS 6 Xposition Yposition Zposition Zrotation Xrotation Yrotation 
			JOINT Chest
			{
				OFFSET 8.98455 -0.406207 0.0
				CHANNELS 6 Xposition Yposition Zposition Zrotation Xrotation Yrotation 
				JOINT Neck
				{
					OFFSET 16.3773 0.0 0.0
					CHANNELS 6 Xposition Yposition Zposition Zrotation Xrotation Yrotation 
					JOINT Head
					{
						OFFSET 6.45672 0.0 0.0
						CHANNELS 6 Xposition Yposition Zposition Zrotation Xrotation Yrotation 
						End Site
						{
							OFFSET 0.0 0.0 0.0
						}
					}
				}
				JOINT Shoulder_L
				{
					OFFSET 12.9942 -0.242716 4.98039
					CHANNELS 6 Xposition Yposition Zposition Zrotation Xrotation Yrotation 
					JOINT UpperArm_L
					{
						OFFSET 5.34809 0.0 0.0
						CHANNELS 6 Xposition Yposition Zposition Zrotation Xrotation Yrotation 
						JOINT LowerArm_L
						{
							OFFSET 24.3286 1.87007e-05 0.0
							CHANNELS 6 Xposition Yposition Zposition Zrotation Xrotation Yrotation 
							JOINT Hand_L
							{
								OFFSET 22.2916 0.0 0.0
								CHANNELS 6 Xposition Yposition Zposition Zrotation Xrotation Yrotation 
								End Site
								{
									OFFSET 0.0 0.0 0.0
								}
							}
						}
					}
				}
				JOINT Shoulder_R
				{
					OFFSET 12.9945 -0.242716 -4.98039
					CHANNELS 6 Xposition Yposition Zposition Zrotation Xrotation Yrotation 
					JOINT UpperArm_R
					{
						OFFSET -5.34813 0.0 0.0
						CHANNELS 6 Xposition Yposition Zposition Zrotation Xrotation Yrotation 
						JOINT LowerArm_R
						{
							OFFSET -24.3289 0.000322201 0.0
							CHANNELS 6 Xposition Yposition Zposition Zrotation Xrotation Yrotation 
							JOINT Hand_R
							{
								OFFSET -22.2915 -0.000108084 0.0
								CHANNELS 6 Xposition Yposition Zposition Zrotation Xrotation Yrotation 
								End Site
								{
									OFFSET 0.0 0.0 0.0
								}
							}
						}
					}
				}
			}
		}
		JOINT UpperLeg_L
		{
			OFFSET -2.19248 -6.46944 0.0
			CHANNELS 6 Xposition Yposition Zposition Zrotation Xrotation Yrotation 
			JOINT LowerLeg_L
			{
				OFFSET 39.0811 0.0 -1.23785e-05
				CHANNELS 6 Xposition Yposition Zposition Zrotation Xrotation Yrotation 
				JOINT Foot_L
				{
					OFFSET 40.9854 0.0 -1.26872e-05
					CHANNELS 6 Xposition Yposition Zposition Zrotation Xrotation Yrotation 
					JOINT Toes_L
					{
						OFFSET 11.7543 0.0 0.0
						CHANNELS 6 Xposition Yposition Zposition Zrotation Xrotation Yrotation 
						End Site
						{
							OFFSET 0.0 0.0 0.0
						}
					}
				}
			}
		}
		JOINT UpperLeg_R
		{
			OFFSET -2.19251 6.46944 0.0
			CHANNELS 6 Xposition Yposition Zposition Zrotation Xrotation Yrotation 
			JOINT LowerLeg_R
			{
				OFFSET -39.0811 -0.00228153 -0.0401928
				CHANNELS 6 Xposition Yposition Zposition Zrotation Xrotation Yrotation 
				JOINT Foot_R
				{
					OFFSET -40.9854 0.0 0.0
					CHANNELS 6 Xposition Yposition Zposition Zrotation Xrotation Yrotation 
					JOINT Toes_R
					{
						OFFSET -11.7543 0.0 0.0
						CHANNELS 6 Xposition Yposition Zposition Zrotation Xrotation Yrotation 
						End Site
						{
							OFFSET 0.0 0.0 0.0
						}
					}
				}
			}
		}
	}
}
MOTION
Frames:	5
Frame Time:	0.0333333
0.000000 0.000000 0.000000 0.000000 0.000000 -0.000000 -3.319170 87.497000 19.115900 -87.181500 -1.851590 -176.859000 15.735700 0.000005 -0.000001 80.335800 83.476400 -79.319100 8.984550 -0.406207 -0.000000 5.119410 -2.209170 2.130230 16.377300 -0.000001 -0.000001 -1.910950 -4.734530 3.266850 6.456720 -0.000001 -0.000000 -9.667660 -4.334360 7.198930 12.994200 -0.242716 4.980390 -90.816800 3.176140 -75.570000 5.348090 -0.000007 -0.000001 -59.787600 34.653100 -32.989000 24.328600 0.000019 0.000005 12.100200 11.055900 -48.183600 22.291600 -0.000001 0.000005 18.292600 5.329290 -0.762767 12.994500 -0.242716 -4.980390 87.860700 12.258300 -80.021300 -5.348130 -0.000001 -0.000004 -66.167600 20.105800 3.369970 -24.328900 0.000322 -0.000009 0.293033 3.670220 -4.581990 -22.291500 -0.000108 -0.000004 14.171400 5.220710 2.195110 -2.192480 -6.469440 -0.000000 -175.061000 -3.599110 -12.178100 39.081100 -0.000007 -0.000012 -0.042789 0.012674 73.509500 40.985400 -0.000006 -0.000013 1.445150 -2.937420 -49.865500 11.754300 -0.000000 0.000003 -0.008816 -0.094581 -20.429100 -2.192510 6.469440 -0.000001 -174.347000 15.865100 168.876000 -39.081100 -0.002282 -0.040193 0.097223 -0.095265 44.604100 -40.985400 0.000008 0.000006 12.686800 3.208140 -76.867200 -11.754300 -0.000006 -0.000006 -2.078140 -2.424290 -20.178900
0.000000 0.000000 0.000000 0.000000 0.000000 -0.000000 -3.842220 89.014900 15.634600 -87.982000 1.765410 -177.595000 15.735700 0.000005 -0.000001 89.722200 83.771000 -89.208100 8.984550 -0.406207 -0.000000 4.692430 -0.074080 1.030090 16.377300 -0.000001 -0.000001 -1.698310 -3.783930 3.710490 6.456720 -0.000001 -0.000000 -9.238890 -4.205360 7.898410 12.994200 -0.242716 4.980390 -90.883300 3.277970 -74.909700 5.348090 -0.000007 -0.000001 -61.413100 36.454100 -28.593800 24.328600 0.000019 0.000005 9.060340 11.219800 -39.334100 22.291600 -0.000001 0.000005 15.468600 5.315340 -0.360868 12.994500 -0.242716 -4.980390 88.246200 11.695000 -81.410500 -5.348130 -0.000001 -0.000004 -66.137600 25.679800 -2.890670 -24.328900 0.000322 -0.000009 0.586344 4.309310 -7.766310 -22.291500 -0.000108 -0.000004 15.452400 5.248570 1.471830 -2.192480 -6.469440 -0.000000 -177.222000 -5.688800 -16.778300 39.081100 -0.000007 -0.000012 -0.034365 0.011631 71.311200 40.985400 -0.000006 -0.000013 3.166900 -5.692160 -53.611400 11.754300 -0.000000 0.000003 -0.007338 -0.082552 -19.937800 -2.192510 6.469440 -0.000001 -176.523000 14.721600 172.585000 -39.081100 -0.002282 -0.040193 0.077046 -0.086506 40.456200 -40.985400 0.000008 0.000006 12.538700 6.519760 -74.173300 -11.754300 -0.000006 -0.000006 -0.010977 -0.110799 -21.088600
0.000000 0.000000 0.000000 0.000000 0.000000 -0.000000 -4.382680 90.275100 12.265000 -88.398200 5.027530 -178.424000 15.735700 0.000005 -0.000001 97.047200 83.990400 -96.876300 8.984550 -0.406207 -0.000000 4.161310 1.466940 0.288158 16.377300 -0.000001 -0.000001 -1.609030 -3.141920 3.969770 6.456720 -0.000001 -0.000000 -9.024710 -3.682380 7.546340 12.994200 -0.242716 4.980390 -90.960500 3.474360 -74.536300 5.348090 -0.000007 -0.000001 -63.296700 37.370100 -23.431800 24.328600 0.000019 0.000005 7.410270 13.099700 -29.854300 22.291600 -0.000001 0.000005 11.978600 5.296830 0.167307 12.994500 -0.242716 -4.980390 88.603100 10.770000 -82.565600 -5.348130 -0.000001 -0.000004 -64.778800 29.676000 -9.849380 -24.328900 0.000322 -0.000009 0.895602 4.083280 -12.402900 -22.291500 -0.000108 -0.000004 16.216100 5.284600 0.500962 -2.192480 -6.469440 -0.000000 -178.635000 -6.174490 -20.598000 39.081100 -0.000007 -0.000012 -0.020353 0.009083 65.962500 40.985400 -0.000006 -0.000013 4.253340 -6.450820 -56.993300 11.754300 -0.000000 0.000003 -0.007985 -0.087918 -20.156900 -2.192510 6.469440 -0.000001 -178.292000 13.908900 175.518000 -39.081100 -0.002282 -0.040193 0.065036 -0.082338 36.868100 -40.985400 0.000008 0.000006 12.734900 9.477730 -71.029200 -11.754300 -0.000006 -0.000006 -0.023905 -0.188030 -24.263500
0.000000 0.000000 0.000000 0.000000 0.000000 -0.000000 -4.947850 91.051700 8.852340 -88.562300 8.431280 -178.925000 15.735700 0.000005 -0.000001 102.765000 83.922600 -102.768000 8.984550 -0.406207 -0.000000 4.092250 2.681610 -0.102682 16.377300 -0.000001 -0.000001 -1.903460 -2.550230 3.799760 6.456720 -0.000001 -0.000000 -9.096500 -3.067880 6.561080 12.994200 -0.242716 4.980390 -91.097400 3.906380 -74.295600 5.348090 -0.000007 -0.000001 -65.475200 36.849600 -17.802100 24.328600 0.000019 0.000005 7.088460 18.840000 -21.072100 22.291600 -0.000001 0.000005 8.367780 5.268120 0.953601 12.994500 -0.242716 -4.980390 88.931400 9.722130 -83.697400 -5.348130 -0.000001 -0.000004 -62.021400 31.999200 -17.779200 -24.328900 0.000322 -0.000009 0.606884 1.880380 -17.951900 -22.291500 -0.000108 -0.000004 16.508900 5.329480 -0.770414 -2.192480 -6.469440 -0.000000 -179.008000 -6.292550 -22.799200 39.081100 -0.000007 -0.000012 0.007175 -0.004535 57.676300 40.985400 -0.000006 -0.000013 4.248320 -6.495520 -60.006400 11.754300 -0.000000 0.000003 -0.007230 -0.081634 -19.900300 -2.192510 6.469440 -0.000001 -179.860000 12.509900 178.189000 -39.081100 -0.002282 -0.040193 0.057835 -0.080239 34.205900 -40.985400 0.000008 0.000006 12.766100 11.726000 -68.575400 -11.754300 -0.000006 -0.000006 -0.038562 -0.254327 -27.016300
0.000000 0.000000 0.000000 0.000000 0.000000 -0.000000 -5.449230 91.161400 5.477900 -88.361900 11.315500 -179.605000 15.735700 0.000005 -0.000001 105.726000 83.838900 -105.747000 8.984550 -0.406207 -0.000000 4.101240 3.335390 -0.161892 16.377300 -0.000001 -0.000001 -2.571070 -2.200290 3.481930 6.456720 -0.000001 -0.000000 -9.390140 -2.552480 5.340780 12.994200 -0.242716 4.980390 -91.179400 4.153840 -74.134400 5.348090 -0.000007 -0.000001 -68.357800 34.425900 -11.578000 24.328600 0.000019 0.000005 6.525940 28.131100 -13.647000 22.291600 -0.000001 0.000005 6.444080 5.210800 2.450150 12.994500 -0.242716 -4.980390 89.143600 8.876490 -84.467200 -5.348130 -0.000001 -0.000004 -58.135500 33.167300 -26.404100 -24.328900 0.000322 -0.000009 -0.472219 -1.049370 -24.128400 -22.291500 -0.000108 -0.000004 16.328900 5.369910 -1.984930 -2.192480 -6.469440 -0.000000 -178.154000 -5.684630 -24.249800 39.081100 -0.000007 -0.000012 0.026310 -0.024253 47.326600 40.985400 -0.000006 -0.000013 3.504700 -5.708140 -61.582100 11.754300 -0.000000 0.000003 -0.007153 -0.080977 -19.873500 -2.192510 6.469440 -0.000001 179.031000 10.873700 -179.931000 -39.081100 -0.002282 -0.040193 0.057128 -0.083164 32.915300 -40.985400 0.000008 0.000006 12.674000 13.318700 -67.519200 -11.754300 -0.000006 -0.000006 -0.053364 -0.309560 -29.334600
